<svg xmlns="http://www.w3.org/2000/svg" xmlns:xlink="http://www.w3.org/1999/xlink" width="94" height="316" viewBox="0 0 94 316">
  <defs>
    <clipPath id="clip-path">
      <rect width="94" height="316" fill="none"/>
    </clipPath>
  </defs>
  <g id="Repeat_Grid_11" data-name="Repeat Grid 11" opacity="0.081" clip-path="url(#clip-path)">
    <g transform="translate(-4479 -3828)">
      <circle id="Ellipse_8" data-name="Ellipse 8" cx="4" cy="4" r="4" transform="translate(4479 3828)" fill="#0d9206"/>
    </g>
    <g transform="translate(-4459 -3828)">
      <circle id="Ellipse_8-2" data-name="Ellipse 8" cx="4" cy="4" r="4" transform="translate(4479 3828)" fill="#0d9206"/>
    </g>
    <g transform="translate(-4439 -3828)">
      <circle id="Ellipse_8-3" data-name="Ellipse 8" cx="4" cy="4" r="4" transform="translate(4479 3828)" fill="#0d9206"/>
    </g>
    <g transform="translate(-4419 -3828)">
      <circle id="Ellipse_8-4" data-name="Ellipse 8" cx="4" cy="4" r="4" transform="translate(4479 3828)" fill="#0d9206"/>
    </g>
    <g transform="translate(-4399 -3828)">
      <circle id="Ellipse_8-5" data-name="Ellipse 8" cx="4" cy="4" r="4" transform="translate(4479 3828)" fill="#0d9206"/>
    </g>
    <g transform="translate(-4479 -3808)">
      <circle id="Ellipse_8-6" data-name="Ellipse 8" cx="4" cy="4" r="4" transform="translate(4479 3828)" fill="#0d9206"/>
    </g>
    <g transform="translate(-4459 -3808)">
      <circle id="Ellipse_8-7" data-name="Ellipse 8" cx="4" cy="4" r="4" transform="translate(4479 3828)" fill="#0d9206"/>
    </g>
    <g transform="translate(-4439 -3808)">
      <circle id="Ellipse_8-8" data-name="Ellipse 8" cx="4" cy="4" r="4" transform="translate(4479 3828)" fill="#0d9206"/>
    </g>
    <g transform="translate(-4419 -3808)">
      <circle id="Ellipse_8-9" data-name="Ellipse 8" cx="4" cy="4" r="4" transform="translate(4479 3828)" fill="#0d9206"/>
    </g>
    <g transform="translate(-4399 -3808)">
      <circle id="Ellipse_8-10" data-name="Ellipse 8" cx="4" cy="4" r="4" transform="translate(4479 3828)" fill="#0d9206"/>
    </g>
    <g transform="translate(-4479 -3788)">
      <circle id="Ellipse_8-11" data-name="Ellipse 8" cx="4" cy="4" r="4" transform="translate(4479 3828)" fill="#0d9206"/>
    </g>
    <g transform="translate(-4459 -3788)">
      <circle id="Ellipse_8-12" data-name="Ellipse 8" cx="4" cy="4" r="4" transform="translate(4479 3828)" fill="#0d9206"/>
    </g>
    <g transform="translate(-4439 -3788)">
      <circle id="Ellipse_8-13" data-name="Ellipse 8" cx="4" cy="4" r="4" transform="translate(4479 3828)" fill="#0d9206"/>
    </g>
    <g transform="translate(-4419 -3788)">
      <circle id="Ellipse_8-14" data-name="Ellipse 8" cx="4" cy="4" r="4" transform="translate(4479 3828)" fill="#0d9206"/>
    </g>
    <g transform="translate(-4399 -3788)">
      <circle id="Ellipse_8-15" data-name="Ellipse 8" cx="4" cy="4" r="4" transform="translate(4479 3828)" fill="#0d9206"/>
    </g>
    <g transform="translate(-4479 -3768)">
      <circle id="Ellipse_8-16" data-name="Ellipse 8" cx="4" cy="4" r="4" transform="translate(4479 3828)" fill="#0d9206"/>
    </g>
    <g transform="translate(-4459 -3768)">
      <circle id="Ellipse_8-17" data-name="Ellipse 8" cx="4" cy="4" r="4" transform="translate(4479 3828)" fill="#0d9206"/>
    </g>
    <g transform="translate(-4439 -3768)">
      <circle id="Ellipse_8-18" data-name="Ellipse 8" cx="4" cy="4" r="4" transform="translate(4479 3828)" fill="#0d9206"/>
    </g>
    <g transform="translate(-4419 -3768)">
      <circle id="Ellipse_8-19" data-name="Ellipse 8" cx="4" cy="4" r="4" transform="translate(4479 3828)" fill="#0d9206"/>
    </g>
    <g transform="translate(-4399 -3768)">
      <circle id="Ellipse_8-20" data-name="Ellipse 8" cx="4" cy="4" r="4" transform="translate(4479 3828)" fill="#0d9206"/>
    </g>
    <g transform="translate(-4479 -3748)">
      <circle id="Ellipse_8-21" data-name="Ellipse 8" cx="4" cy="4" r="4" transform="translate(4479 3828)" fill="#0d9206"/>
    </g>
    <g transform="translate(-4459 -3748)">
      <circle id="Ellipse_8-22" data-name="Ellipse 8" cx="4" cy="4" r="4" transform="translate(4479 3828)" fill="#0d9206"/>
    </g>
    <g transform="translate(-4439 -3748)">
      <circle id="Ellipse_8-23" data-name="Ellipse 8" cx="4" cy="4" r="4" transform="translate(4479 3828)" fill="#0d9206"/>
    </g>
    <g transform="translate(-4419 -3748)">
      <circle id="Ellipse_8-24" data-name="Ellipse 8" cx="4" cy="4" r="4" transform="translate(4479 3828)" fill="#0d9206"/>
    </g>
    <g transform="translate(-4399 -3748)">
      <circle id="Ellipse_8-25" data-name="Ellipse 8" cx="4" cy="4" r="4" transform="translate(4479 3828)" fill="#0d9206"/>
    </g>
    <g transform="translate(-4479 -3728)">
      <circle id="Ellipse_8-26" data-name="Ellipse 8" cx="4" cy="4" r="4" transform="translate(4479 3828)" fill="#0d9206"/>
    </g>
    <g transform="translate(-4459 -3728)">
      <circle id="Ellipse_8-27" data-name="Ellipse 8" cx="4" cy="4" r="4" transform="translate(4479 3828)" fill="#0d9206"/>
    </g>
    <g transform="translate(-4439 -3728)">
      <circle id="Ellipse_8-28" data-name="Ellipse 8" cx="4" cy="4" r="4" transform="translate(4479 3828)" fill="#0d9206"/>
    </g>
    <g transform="translate(-4419 -3728)">
      <circle id="Ellipse_8-29" data-name="Ellipse 8" cx="4" cy="4" r="4" transform="translate(4479 3828)" fill="#0d9206"/>
    </g>
    <g transform="translate(-4399 -3728)">
      <circle id="Ellipse_8-30" data-name="Ellipse 8" cx="4" cy="4" r="4" transform="translate(4479 3828)" fill="#0d9206"/>
    </g>
    <g transform="translate(-4479 -3708)">
      <circle id="Ellipse_8-31" data-name="Ellipse 8" cx="4" cy="4" r="4" transform="translate(4479 3828)" fill="#0d9206"/>
    </g>
    <g transform="translate(-4459 -3708)">
      <circle id="Ellipse_8-32" data-name="Ellipse 8" cx="4" cy="4" r="4" transform="translate(4479 3828)" fill="#0d9206"/>
    </g>
    <g transform="translate(-4439 -3708)">
      <circle id="Ellipse_8-33" data-name="Ellipse 8" cx="4" cy="4" r="4" transform="translate(4479 3828)" fill="#0d9206"/>
    </g>
    <g transform="translate(-4419 -3708)">
      <circle id="Ellipse_8-34" data-name="Ellipse 8" cx="4" cy="4" r="4" transform="translate(4479 3828)" fill="#0d9206"/>
    </g>
    <g transform="translate(-4399 -3708)">
      <circle id="Ellipse_8-35" data-name="Ellipse 8" cx="4" cy="4" r="4" transform="translate(4479 3828)" fill="#0d9206"/>
    </g>
    <g transform="translate(-4479 -3688)">
      <circle id="Ellipse_8-36" data-name="Ellipse 8" cx="4" cy="4" r="4" transform="translate(4479 3828)" fill="#0d9206"/>
    </g>
    <g transform="translate(-4459 -3688)">
      <circle id="Ellipse_8-37" data-name="Ellipse 8" cx="4" cy="4" r="4" transform="translate(4479 3828)" fill="#0d9206"/>
    </g>
    <g transform="translate(-4439 -3688)">
      <circle id="Ellipse_8-38" data-name="Ellipse 8" cx="4" cy="4" r="4" transform="translate(4479 3828)" fill="#0d9206"/>
    </g>
    <g transform="translate(-4419 -3688)">
      <circle id="Ellipse_8-39" data-name="Ellipse 8" cx="4" cy="4" r="4" transform="translate(4479 3828)" fill="#0d9206"/>
    </g>
    <g transform="translate(-4399 -3688)">
      <circle id="Ellipse_8-40" data-name="Ellipse 8" cx="4" cy="4" r="4" transform="translate(4479 3828)" fill="#0d9206"/>
    </g>
    <g transform="translate(-4479 -3668)">
      <circle id="Ellipse_8-41" data-name="Ellipse 8" cx="4" cy="4" r="4" transform="translate(4479 3828)" fill="#0d9206"/>
    </g>
    <g transform="translate(-4459 -3668)">
      <circle id="Ellipse_8-42" data-name="Ellipse 8" cx="4" cy="4" r="4" transform="translate(4479 3828)" fill="#0d9206"/>
    </g>
    <g transform="translate(-4439 -3668)">
      <circle id="Ellipse_8-43" data-name="Ellipse 8" cx="4" cy="4" r="4" transform="translate(4479 3828)" fill="#0d9206"/>
    </g>
    <g transform="translate(-4419 -3668)">
      <circle id="Ellipse_8-44" data-name="Ellipse 8" cx="4" cy="4" r="4" transform="translate(4479 3828)" fill="#0d9206"/>
    </g>
    <g transform="translate(-4399 -3668)">
      <circle id="Ellipse_8-45" data-name="Ellipse 8" cx="4" cy="4" r="4" transform="translate(4479 3828)" fill="#0d9206"/>
    </g>
    <g transform="translate(-4479 -3648)">
      <circle id="Ellipse_8-46" data-name="Ellipse 8" cx="4" cy="4" r="4" transform="translate(4479 3828)" fill="#0d9206"/>
    </g>
    <g transform="translate(-4459 -3648)">
      <circle id="Ellipse_8-47" data-name="Ellipse 8" cx="4" cy="4" r="4" transform="translate(4479 3828)" fill="#0d9206"/>
    </g>
    <g transform="translate(-4439 -3648)">
      <circle id="Ellipse_8-48" data-name="Ellipse 8" cx="4" cy="4" r="4" transform="translate(4479 3828)" fill="#0d9206"/>
    </g>
    <g transform="translate(-4419 -3648)">
      <circle id="Ellipse_8-49" data-name="Ellipse 8" cx="4" cy="4" r="4" transform="translate(4479 3828)" fill="#0d9206"/>
    </g>
    <g transform="translate(-4399 -3648)">
      <circle id="Ellipse_8-50" data-name="Ellipse 8" cx="4" cy="4" r="4" transform="translate(4479 3828)" fill="#0d9206"/>
    </g>
    <g transform="translate(-4479 -3628)">
      <circle id="Ellipse_8-51" data-name="Ellipse 8" cx="4" cy="4" r="4" transform="translate(4479 3828)" fill="#0d9206"/>
    </g>
    <g transform="translate(-4459 -3628)">
      <circle id="Ellipse_8-52" data-name="Ellipse 8" cx="4" cy="4" r="4" transform="translate(4479 3828)" fill="#0d9206"/>
    </g>
    <g transform="translate(-4439 -3628)">
      <circle id="Ellipse_8-53" data-name="Ellipse 8" cx="4" cy="4" r="4" transform="translate(4479 3828)" fill="#0d9206"/>
    </g>
    <g transform="translate(-4419 -3628)">
      <circle id="Ellipse_8-54" data-name="Ellipse 8" cx="4" cy="4" r="4" transform="translate(4479 3828)" fill="#0d9206"/>
    </g>
    <g transform="translate(-4399 -3628)">
      <circle id="Ellipse_8-55" data-name="Ellipse 8" cx="4" cy="4" r="4" transform="translate(4479 3828)" fill="#0d9206"/>
    </g>
    <g transform="translate(-4479 -3608)">
      <circle id="Ellipse_8-56" data-name="Ellipse 8" cx="4" cy="4" r="4" transform="translate(4479 3828)" fill="#0d9206"/>
    </g>
    <g transform="translate(-4459 -3608)">
      <circle id="Ellipse_8-57" data-name="Ellipse 8" cx="4" cy="4" r="4" transform="translate(4479 3828)" fill="#0d9206"/>
    </g>
    <g transform="translate(-4439 -3608)">
      <circle id="Ellipse_8-58" data-name="Ellipse 8" cx="4" cy="4" r="4" transform="translate(4479 3828)" fill="#0d9206"/>
    </g>
    <g transform="translate(-4419 -3608)">
      <circle id="Ellipse_8-59" data-name="Ellipse 8" cx="4" cy="4" r="4" transform="translate(4479 3828)" fill="#0d9206"/>
    </g>
    <g transform="translate(-4399 -3608)">
      <circle id="Ellipse_8-60" data-name="Ellipse 8" cx="4" cy="4" r="4" transform="translate(4479 3828)" fill="#0d9206"/>
    </g>
    <g transform="translate(-4479 -3588)">
      <circle id="Ellipse_8-61" data-name="Ellipse 8" cx="4" cy="4" r="4" transform="translate(4479 3828)" fill="#0d9206"/>
    </g>
    <g transform="translate(-4459 -3588)">
      <circle id="Ellipse_8-62" data-name="Ellipse 8" cx="4" cy="4" r="4" transform="translate(4479 3828)" fill="#0d9206"/>
    </g>
    <g transform="translate(-4439 -3588)">
      <circle id="Ellipse_8-63" data-name="Ellipse 8" cx="4" cy="4" r="4" transform="translate(4479 3828)" fill="#0d9206"/>
    </g>
    <g transform="translate(-4419 -3588)">
      <circle id="Ellipse_8-64" data-name="Ellipse 8" cx="4" cy="4" r="4" transform="translate(4479 3828)" fill="#0d9206"/>
    </g>
    <g transform="translate(-4399 -3588)">
      <circle id="Ellipse_8-65" data-name="Ellipse 8" cx="4" cy="4" r="4" transform="translate(4479 3828)" fill="#0d9206"/>
    </g>
    <g transform="translate(-4479 -3568)">
      <circle id="Ellipse_8-66" data-name="Ellipse 8" cx="4" cy="4" r="4" transform="translate(4479 3828)" fill="#0d9206"/>
    </g>
    <g transform="translate(-4459 -3568)">
      <circle id="Ellipse_8-67" data-name="Ellipse 8" cx="4" cy="4" r="4" transform="translate(4479 3828)" fill="#0d9206"/>
    </g>
    <g transform="translate(-4439 -3568)">
      <circle id="Ellipse_8-68" data-name="Ellipse 8" cx="4" cy="4" r="4" transform="translate(4479 3828)" fill="#0d9206"/>
    </g>
    <g transform="translate(-4419 -3568)">
      <circle id="Ellipse_8-69" data-name="Ellipse 8" cx="4" cy="4" r="4" transform="translate(4479 3828)" fill="#0d9206"/>
    </g>
    <g transform="translate(-4399 -3568)">
      <circle id="Ellipse_8-70" data-name="Ellipse 8" cx="4" cy="4" r="4" transform="translate(4479 3828)" fill="#0d9206"/>
    </g>
    <g transform="translate(-4479 -3548)">
      <circle id="Ellipse_8-71" data-name="Ellipse 8" cx="4" cy="4" r="4" transform="translate(4479 3828)" fill="#0d9206"/>
    </g>
    <g transform="translate(-4459 -3548)">
      <circle id="Ellipse_8-72" data-name="Ellipse 8" cx="4" cy="4" r="4" transform="translate(4479 3828)" fill="#0d9206"/>
    </g>
    <g transform="translate(-4439 -3548)">
      <circle id="Ellipse_8-73" data-name="Ellipse 8" cx="4" cy="4" r="4" transform="translate(4479 3828)" fill="#0d9206"/>
    </g>
    <g transform="translate(-4419 -3548)">
      <circle id="Ellipse_8-74" data-name="Ellipse 8" cx="4" cy="4" r="4" transform="translate(4479 3828)" fill="#0d9206"/>
    </g>
    <g transform="translate(-4399 -3548)">
      <circle id="Ellipse_8-75" data-name="Ellipse 8" cx="4" cy="4" r="4" transform="translate(4479 3828)" fill="#0d9206"/>
    </g>
    <g transform="translate(-4479 -3528)">
      <circle id="Ellipse_8-76" data-name="Ellipse 8" cx="4" cy="4" r="4" transform="translate(4479 3828)" fill="#0d9206"/>
    </g>
    <g transform="translate(-4459 -3528)">
      <circle id="Ellipse_8-77" data-name="Ellipse 8" cx="4" cy="4" r="4" transform="translate(4479 3828)" fill="#0d9206"/>
    </g>
    <g transform="translate(-4439 -3528)">
      <circle id="Ellipse_8-78" data-name="Ellipse 8" cx="4" cy="4" r="4" transform="translate(4479 3828)" fill="#0d9206"/>
    </g>
    <g transform="translate(-4419 -3528)">
      <circle id="Ellipse_8-79" data-name="Ellipse 8" cx="4" cy="4" r="4" transform="translate(4479 3828)" fill="#0d9206"/>
    </g>
    <g transform="translate(-4399 -3528)">
      <circle id="Ellipse_8-80" data-name="Ellipse 8" cx="4" cy="4" r="4" transform="translate(4479 3828)" fill="#0d9206"/>
    </g>
  </g>
</svg>
